<?xml version="1.0" encoding="UTF-8" standalone="no"?> <!-- Created with Vectornator for iOS (http://vectornator.io/) --><!DOCTYPE svg PUBLIC "-//W3C//DTD SVG 1.1//EN" "http://www.w3.org/Graphics/SVG/1.1/DTD/svg11.dtd">
<svg style="fill-rule:evenodd;clip-rule:evenodd;stroke-linecap:round;stroke-linejoin:round;" xmlns:vectornator="http://vectornator.io" xmlns:xlink="http://www.w3.org/1999/xlink" xmlns="http://www.w3.org/2000/svg" xml:space="preserve" version="1.1" viewBox="0 0 546 546">
<metadata>
<vectornator:setting key="RulersVisible" value="1"/>
<vectornator:setting key="TimeLapseWatermarkDisabled" value="0"/>
<vectornator:setting key="Units" value="Pixels"/>
<vectornator:setting key="DynamicGuides" value="1"/>
<vectornator:setting key="GuidesVisible" value="1"/>
<vectornator:setting key="CMYKEnabledKey" value="0"/>
<vectornator:setting key="DimensionsVisible" value="0"/>
<vectornator:setting key="SnapToGuides" value="1"/>
<vectornator:setting key="GridSpacing" value="36"/>
</metadata>
<defs/>
<g id="Untitled" vectornator:layerName="Untitled">
<g opacity="1">
<path d="M324.64+443.354L370.825+443.354C376.494+443.354+381.075+438.749+381.075+433.081C381.075+427.413+376.494+422.831+370.825+422.831L229.913+422.831C207.622+422.831+189.543+440.887+189.543+463.178L189.543+505.571C189.543+523.239+168.202+532.08+155.703+519.585L34.1277+398.01C16.3302+380.215+16.3316+351.378+34.1277+333.585L155.796+211.916C159.805+207.908+159.804+201.422+155.796+197.413C151.788+193.405+145.302+193.405+141.294+197.413L19.6251+319.059C-6.18883+344.868-6.18938+386.726+19.625+412.535L141.177+534.111C149.125+542.056+158.847+545.747+168.44+545.987C189.544+546.517+210.088+530.29+210.088+505.571L210.088+463.178C210.088+452.224+218.958+443.354+229.913+443.354L324.64+443.354" opacity="1" fill="#ffffff"/>
<path d="M372.29+474.869C375.528+474.869+378.147+472.227+378.146+468.989C378.146+465.75+375.528+463.132+372.29+463.132L252.109+463.132C248.87+463.132+246.228+465.75+246.228+468.989C246.228+472.228+248.87+474.869+252.109+474.869L372.29+474.869Z" opacity="1" fill="#ffffff"/>
<path d="M372.29+505.64C375.528+505.64+378.147+503.022+378.146+499.784C378.146+496.545+375.528+493.927+372.29+493.927L296.314+493.927C293.075+493.927+290.457+496.545+290.457+499.784C290.457+503.022+293.075+505.64+296.314+505.64L372.29+505.64Z" opacity="1" fill="#ffffff"/>
</g>
<g opacity="1">
<path d="M221.624+102.646L175.439+102.646C169.771+102.646+165.19+107.251+165.19+112.919C165.19+118.587+169.771+123.169+175.439+123.169L316.351+123.169C338.643+123.169+356.722+105.113+356.722+82.8216L356.722+40.4293C356.722+22.7615+378.062+13.9204+390.561+26.4148L512.137+147.99C529.934+165.785+529.933+194.622+512.137+212.416L390.468+334.084C386.46+338.092+386.46+344.578+390.468+348.587C394.476+352.595+400.962+352.595+404.971+348.587L526.639+226.941C552.453+201.132+552.454+159.274+526.639+133.465L405.087+11.8889C397.139+3.9444+387.418+0.253076+377.825+0.0125644C356.721-0.51656+336.176+15.7102+336.176+40.4293L336.176+82.8216C336.176+93.7762+327.306+102.646+316.351+102.646L221.624+102.646" opacity="1" fill="#ffffff"/>
<path d="M173.975+71.1311C170.736+71.1311+168.118+73.7725+168.118+77.0112C168.118+80.2499+170.736+82.868+173.975+82.868L294.156+82.868C297.395+82.868+300.036+80.2499+300.036+77.0112C300.036+73.7725+297.395+71.1312+294.156+71.1312L173.975+71.1311Z" opacity="1" fill="#ffffff"/>
<path d="M173.975+40.3596C170.736+40.3596+168.118+42.9776+168.118+46.2164C168.118+49.4551+170.736+52.0732+173.975+52.0732L249.951+52.0732C253.19+52.0732+255.808+49.4551+255.808+46.2164C255.808+42.9777+253.19+40.3596+249.951+40.3596L173.975+40.3596Z" opacity="1" fill="#ffffff"/>
</g>
</g>
</svg>
