<?xml version="1.0" encoding="UTF-8" standalone="no"?> <!-- Created with Vectornator for iOS (http://vectornator.io/) --><!DOCTYPE svg PUBLIC "-//W3C//DTD SVG 1.1//EN" "http://www.w3.org/Graphics/SVG/1.1/DTD/svg11.dtd">
<svg style="fill-rule:evenodd;clip-rule:evenodd;stroke-linecap:round;stroke-linejoin:round;" xmlns:vectornator="http://vectornator.io" xmlns:xlink="http://www.w3.org/1999/xlink" xmlns="http://www.w3.org/2000/svg" xml:space="preserve" version="1.1" viewBox="0 0 4063 546">
<metadata>
<vectornator:setting key="RulersVisible" value="1"/>
<vectornator:setting key="TimeLapseWatermarkDisabled" value="0"/>
<vectornator:setting key="Units" value="Pixels"/>
<vectornator:setting key="DynamicGuides" value="1"/>
<vectornator:setting key="GuidesVisible" value="1"/>
<vectornator:setting key="CMYKEnabledKey" value="0"/>
<vectornator:setting key="DimensionsVisible" value="0"/>
<vectornator:setting key="SnapToGuides" value="1"/>
<vectornator:setting key="GridSpacing" value="36"/>
</metadata>
<defs/>
<g id="Untitled" vectornator:layerName="Untitled">
<g opacity="1">
<path d="M1750.09+186.805C1750.59+194.715+1748.57+196.565+1741+196.565L1737.6+196.565C1729.69+196.565+1727.67+194.375+1727.16+186.805L1722.45+114.805C1721.95+107.905+1721.45+106.385+1718.58+106.385C1715.89+106.385+1715.05+107.905+1714.21+114.805L1706.47+176.555C1705.63+184.125+1703.61+189.505+1700.58+192.375C1697.72+195.235+1692.5+196.575+1684.93+196.575C1671.93+196.575+1665.41+192.035+1663.39+176.575L1655.48+114.825C1654.64+107.925+1653.8+106.405+1651.11+106.405C1648.42+106.405+1647.74+107.925+1647.24+114.825L1642.69+186.825C1642.19+194.395+1640.17+196.585+1632.26+196.585L1628.91+196.585C1621.33+196.585+1619.32+194.735+1619.82+186.825L1625.21+113.125C1626.55+94.7848+1633.94+86.2048+1650.77+86.2048C1666.42+86.2048+1673.77+94.2848+1675.84+113.125L1682.07+172.525C1682.57+177.405+1682.91+178.075+1684.93+178.075C1686.95+178.075+1687.28+177.405+1687.79+172.525L1694.02+113.125C1695.87+94.4548+1703.27+86.2048+1718.92+86.2048C1736.25+86.2048+1743.32+94.4548+1744.66+113.125L1750.09+186.805Z" opacity="1" fill="#89a1c9"/>
<path d="M1768.93+96.9548C1768.93+89.3848+1770.78+87.1948+1778.69+87.1948L1781.69+87.1948C1789.6+87.1948+1791.45+89.3848+1791.45+96.9548L1791.45+186.805C1791.45+194.375+1789.6+196.565+1781.69+196.565L1778.69+196.565C1770.78+196.565+1768.93+194.375+1768.93+186.805L1768.93+96.9548Z" opacity="1" fill="#89a1c9"/>
<path d="M1816.04+111.055C1816.04+91.7048+1822.78+85.1448+1839.43+85.1448C1853.43+85.1448+1859.12+90.0248+1862.99+105.675L1880.49+176.175C1880.99+178.535+1881.99+179.715+1883.49+179.715C1885.49+179.715+1886.01+178.865+1886.01+174.995L1886.01+96.9548C1886.01+89.3848+1887.86+87.1948+1895.77+87.1948L1898.13+87.1948C1906.04+87.1948+1907.89+89.3848+1907.89+96.9548L1907.89+172.675C1907.89+192.025+1901.32+198.585+1885.34+198.585C1870.7+198.585+1864.81+193.365+1860.77+177.385L1843.6+108.735C1842.76+104.865+1842.25+104.025+1840.24+104.025C1838.23+104.025+1837.88+104.865+1837.88+109.025L1837.88+186.765C1837.88+194.335+1836.03+196.525+1828.12+196.525L1825.8+196.525C1817.9+196.525+1816.04+194.335+1816.04+186.765L1816.04+111.055Z" opacity="1" fill="#89a1c9"/>
<path d="M1953.68+149.455L1953.68+186.805C1953.68+194.375+1951.83+196.565+1943.92+196.565L1940.92+196.565C1933.01+196.565+1931.16+194.375+1931.16+186.805L1931.16+96.9548C1931.16+89.3848+1933.01+87.1948+1940.92+87.1948L1943.92+87.1948C1951.83+87.1948+1953.68+89.3848+1953.68+96.9548L1953.68+128.415L1993.6+128.415L1993.6+96.9548C1993.6+89.3848+1995.79+87.1948+2003.36+87.1948L2006.36+87.1948C2013.93+87.1948+2016.12+89.3848+2016.12+96.9548L2016.12+186.805C2016.12+194.375+2013.93+196.565+2006.36+196.565L2003.36+196.565C1995.79+196.565+1993.6+194.375+1993.6+186.805L1993.6+149.455L1953.68+149.455Z" opacity="1" fill="#89a1c9"/>
<path d="M2133.72+187.145C2135.72+194.715+2134.4+196.565+2126.49+196.565L2123.29+196.565C2115.38+196.565+2113.03+194.715+2111.01+187.145L2106.6+169.985L2062.18+169.985L2057.81+187.145C2055.81+194.715+2053.43+196.565+2045.52+196.565L2042.33+196.565C2034.42+196.565+2033.07+194.715+2035.09+187.145L2053.94+117.485C2057.3+104.865+2059.15+99.6448+2063.7+93.5848C2068.25+87.5248+2074.3+85.5148+2084.39+85.5148C2094.48+85.5148+2100.55+87.5148+2105.09+93.5848C2109.63+99.6548+2111.48+104.865+2114.85+117.485L2133.72+187.145ZM2067.43+149.785L2101.25+149.785L2093.17+118.495C2091.66+112.935+2090.48+109.575+2089.64+108.065C2088.8+106.555+2086.95+105.705+2084.42+105.705C2081.89+105.705+2080.05+106.545+2079.21+108.065C2078.37+109.585+2077.21+112.935+2075.67+118.495L2067.43+149.785Z" opacity="1" fill="#89a1c9"/>
<path d="M1707.94+302.274L1738.43+348.134C1744.25+356.754+1743.32+359.314+1732.38+359.314L1723.53+359.314C1713.06+359.314+1708.87+356.984+1702.58+347.904L1674.18+304.604L1653+304.604L1653+345.804C1653+356.284+1650.44+359.314+1639.5+359.314L1635.31+359.314C1624.37+359.314+1621.81+356.314+1621.81+345.804L1621.81+235.925C1621.81+216.375+1630.19+207.995+1649.74+207.995L1687.92+207.995C1722.14+207.995+1739.37+224.055+1739.37+256.414C1739.37+281.554+1728.89+296.924+1707.94+302.274ZM1659.94+237.095C1655.28+237.095+1652.94+239.428+1652.94+244.094L1652.94+275.524L1687.86+275.524C1701.36+275.524+1708.11+269.234+1708.11+256.434C1708.11+243.434+1702.52+237.115+1687.86+237.115L1659.94+237.095Z" opacity="1" fill="#89a1c9"/>
<path d="M1800.35+296.454L1800.35+323.224C1800.35+327.891+1802.69+330.224+1807.35+330.224L1863.92+330.224C1874.39+330.224+1877.42+332.784+1877.42+343.724L1877.42+345.814C1877.42+356.294+1874.42+359.324+1863.92+359.324L1797.09+359.324C1777.54+359.324+1769.16+350.944+1769.16+331.384L1769.16+235.925C1769.16+216.375+1777.54+207.995+1797.09+207.995L1863.91+207.995C1874.38+207.995+1877.41+210.995+1877.41+221.495L1877.41+223.595C1877.41+234.535+1874.41+237.095+1863.91+237.095L1807.34+237.095C1802.68+237.095+1800.34+239.428+1800.34+244.095L1800.34+267.354L1854.6+267.354C1865.08+267.354+1868.11+269.914+1868.11+280.854L1868.11+282.954C1868.11+293.424+1865.11+296.454+1854.6+296.454L1800.35+296.454Z" opacity="1" fill="#89a1c9"/>
<path d="M1932.34+303.674C1932.34+322.064+1940.72+333.004+1967.5+333.004C1975.99+332.986+1984.43+331.812+1992.6+329.514C2002.84+326.714+2005.6+329.044+2005.6+339.984L2005.6+341.854C2005.6+352.324+2003.04+354.854+1992.8+358.614C1986.05+360.944+1977.2+362.104+1966.03+362.104C1922.26+362.104+1900.15+344.644+1900.15+303.674L1900.15+266.424C1900.15+228.245+1922.26+205.665+1966.26+205.665C1977.2+205.665+1985.82+207.065+1992.57+209.665C2003.04+213.615+2005.57+216.185+2005.57+226.425L2005.57+228.285C2005.57+239.225+2002.32+241.785+1992.07+238.765C1983.7+236.186+1975+234.839+1966.23+234.765C1942.23+234.765+1932.23+244.765+1932.23+266.424L1932.34+303.674Z" opacity="1" fill="#89a1c9"/>
<path d="M2060.6+296.454L2060.6+323.224C2060.6+327.891+2062.94+330.224+2067.6+330.224L2124.17+330.224C2134.65+330.224+2137.67+332.784+2137.67+343.724L2137.67+345.814C2137.67+356.294+2134.67+359.324+2124.17+359.324L2057.36+359.324C2037.8+359.324+2029.42+350.944+2029.42+331.384L2029.42+235.925C2029.42+216.375+2037.8+207.995+2057.36+207.995L2124.17+207.995C2134.65+207.995+2137.67+210.995+2137.67+221.495L2137.67+223.595C2137.67+234.535+2134.67+237.095+2124.17+237.095L2067.6+237.095C2062.94+237.095+2060.6+239.428+2060.6+244.095L2060.6+267.354L2114.84+267.354C2125.32+267.354+2128.34+269.914+2128.34+280.854L2128.34+282.954C2128.34+293.424+2125.34+296.454+2114.84+296.454L2060.6+296.454Z" opacity="1" fill="#89a1c9"/>
<path d="M2166.99+221.495C2166.99+211.015+2169.55+207.995+2180.49+207.995L2184.68+207.995C2195.68+207.995+2198.19+210.995+2198.19+221.495L2198.19+345.804C2198.19+356.284+2195.63+359.314+2184.68+359.314L2180.49+359.314C2169.55+359.314+2166.99+356.314+2166.99+345.804L2166.99+221.495Z" opacity="1" fill="#89a1c9"/>
<path d="M2222.39+221.495C2222.39+211.015+2224.95+207.995+2235.9+207.995L2329.71+207.995C2340.19+207.995+2343.22+210.995+2343.22+221.495L2343.22+223.595C2343.22+234.535+2340.22+237.095+2329.71+237.095L2298.52+237.095L2298.52+345.804C2298.52+356.284+2295.52+359.314+2285.02+359.314L2280.6+359.314C2269.66+359.314+2267.1+356.314+2267.1+345.804L2267.1+237.055L2235.9+237.055C2224.9+237.055+2222.39+234.495+2222.39+223.555L2222.39+221.495Z" opacity="1" fill="#89a1c9"/>
<path d="M2476.6+346.274C2479.39+356.754+2477.53+359.274+2466.6+359.274L2462.18+359.274C2451.24+359.274+2447.98+356.714+2445.18+346.274L2439.18+322.534L2377.71+322.534L2371.71+346.274C2368.92+356.754+2365.71+359.274+2354.71+359.274L2350.28+359.274C2339.34+359.274+2337.48+356.714+2340.28+346.274L2366.36+249.894C2371.01+232.435+2373.57+225.215+2379.86+216.835C2386.15+208.455+2394.53+205.665+2408.5+205.665C2422.47+205.665+2430.84+208.455+2437.13+216.835C2443.42+225.215+2445.98+232.435+2450.63+249.894L2476.6+346.274ZM2384.87+294.594L2431.67+294.594L2420.49+251.294C2418.39+243.614+2416.77+238.954+2415.6+236.855C2414.43+234.755+2411.88+233.595+2408.39+233.595C2404.9+233.595+2402.33+234.765+2401.17+236.855C2400.01+238.944+2398.37+243.614+2396.28+251.294L2384.87+294.594Z" opacity="1" fill="#89a1c9"/>
<path d="M2244.23+138.117L2182.14+138.117C2174.51+138.117+2168.35+144.308+2168.35+151.93C2168.35+159.551+2174.51+165.711+2182.14+165.711L2371.6+165.711C2401.58+165.711+2425.88+141.434+2425.88+111.461L2425.88+54.4611C2425.88+30.7052+2454.58+18.8177+2471.38+35.6174L2634.85+199.086C2658.78+223.012+2658.78+261.786+2634.85+285.711L2471.26+449.304C2465.87+454.693+2465.87+463.415+2471.26+468.804C2476.65+474.194+2485.37+474.193+2490.76+468.804L2654.35+305.242C2689.06+270.539+2689.06+214.258+2654.35+179.555L2490.92+16.0862C2480.23+5.40415+2467.16+0.440867+2454.26+0.117482C2425.88-0.593965+2398.26+21.2242+2398.26+54.4611L2398.26+111.461C2398.26+126.19+2386.33+138.117+2371.6+138.117L2244.23+138.117" opacity="1" fill="#784c87"/>
<path d="M1582.01+73.0861C1578.48+73.0861+1574.96+74.4227+1572.26+77.1173L1408.64+240.711C1373.94+275.42+1373.94+331.691+1408.64+366.398L1572.07+529.898C1606.26+564.083+1664.73+539.866+1664.73+491.523L1664.73+434.523C1664.73+419.799+1676.66+407.867+1691.39+407.867L2181.76+407.867C2189.38+407.867+2195.57+401.676+2195.57+394.054C2195.57+386.433+2189.38+380.242+2181.76+380.242L1691.39+380.242C1661.42+380.242+1637.14+404.556+1637.14+434.523L1637.14+491.523C1637.14+515.279+1608.4+527.162+1591.61+510.367L1428.17+346.867C1404.25+322.937+1404.25+284.171+1428.17+260.242L1591.76+96.6173C1597.15+91.2281+1597.15+82.5065+1591.76+77.1173C1589.07+74.4227+1585.54+73.0861+1582.01+73.0861Z" opacity="1" fill="#784c87"/>
<path d="M2020.54+434.742C2016.19+434.742+2012.64+438.262+2012.64+442.617C2012.64+446.971+2016.19+450.523+2020.54+450.523L2182.14+450.523C2186.49+450.523+2190.04+446.971+2190.04+442.617C2190.04+438.262+2186.49+434.742+2182.14+434.742L2020.54+434.742Z" opacity="1" fill="#784c87"/>
<path d="M2079.98+476.117C2075.62+476.117+2072.1+479.668+2072.1+484.023C2072.1+488.378+2075.62+491.898+2079.98+491.898L2182.14+491.898C2186.49+491.898+2190.04+488.378+2190.04+484.023C2190.04+479.668+2186.49+476.117+2182.14+476.117L2079.98+476.117Z" opacity="1" fill="#784c87"/>
<path d="M2180.17+95.7423C2175.81+95.7423+2172.29+99.2938+2172.29+103.649C2172.29+108.003+2175.81+111.523+2180.17+111.524L2341.76+111.524C2346.11+111.524+2349.67+108.003+2349.67+103.649C2349.67+99.2938+2346.11+95.7423+2341.76+95.7423L2180.17+95.7423Z" opacity="1" fill="#784c87"/>
<path d="M2180.17+54.3674C2175.81+54.3674+2172.29+57.8876+2172.29+62.2424C2172.29+66.5971+2175.81+70.1174+2180.17+70.1173L2282.32+70.1173C2286.68+70.1173+2290.2+66.5971+2290.2+62.2424C2290.2+57.8876+2286.68+54.3674+2282.32+54.3674L2180.17+54.3674Z" opacity="1" fill="#784c87"/>
</g>
</g>
</svg>
